<svg id="unityroom" width="100" height="142" viewBox="0 0 100 142" fill="none" xmlns="http://www.w3.org/2000/svg">
    <g clip-path="url(#clip0_56_3)">
        <path fill-rule="evenodd" clip-rule="evenodd"
            d="M99.8677 23.1251C99.8677 19.8111 97.8237 16.8402 94.7287 15.6542L55.2466 0.530113C52.7866 -0.411888 50.0216 -0.0828831 47.8516 1.41012C45.6806 2.90212 44.3846 5.36713 44.3846 8.00113V133.501C44.3846 136.135 45.6806 138.6 47.8516 140.092C50.0216 141.585 52.7866 141.914 55.2466 140.972L94.7287 125.848C97.8237 124.662 99.8677 121.691 99.8677 118.377V23.1251ZM65.3956 62.7512C69.8106 62.7512 73.3956 66.3362 73.3956 70.7512C73.3956 75.1662 69.8106 78.7512 65.3956 78.7512C60.9796 78.7512 57.3956 75.1662 57.3956 70.7512C57.3956 66.3362 60.9796 62.7512 65.3956 62.7512Z"
            fill="white" />
        <path fill-rule="evenodd" clip-rule="evenodd"
            d="M31.6393 21.9232C31.6393 17.5046 28.0572 13.9236 23.6393 13.9236H8.99236C4.57447 13.9236 0.992371 17.5046 0.992371 21.9232V119.577C0.992371 123.996 4.57447 127.577 8.99236 127.577H23.6393C28.0572 127.577 31.6393 123.996 31.6393 119.577V21.9232Z"
            fill="white" />
    </g>
    <defs>
        <clipPath id="clip0_56_3">
            <rect width="100" height="142" fill="white" />
        </clipPath>
    </defs>
</svg>
